<?xml version="1.0" encoding="utf-8"?>
<!-- Generator: Adobe Illustrator 21.0.2, SVG Export Plug-In . SVG Version: 6.00 Build 0)  -->
<svg version="1.1" id="Layer_1" xmlns="http://www.w3.org/2000/svg" xmlns:xlink="http://www.w3.org/1999/xlink" x="0px" y="0px"
	 viewBox="0 0 690 164.5" style="enable-background:new 0 0 690 164.5;" xml:space="preserve">
<style type="text/css">
	.st0{fill:#FFFFFF;}
	.st1{fill:#333E48;}
	.st2{fill:#6EC4E7;}
</style>
<g>
	<path class="st0" d="M102,44.9c-3-3.9-7-7.2-12.2-10.1c-5.2-2.9-10.8-4.3-16.9-4.3c-5.4,0-10.3,1.1-14.7,3.3
		c-4.4,2.2-6.7,5.9-6.7,11.1c0,5.2,2.4,8.8,7.3,10.9c4.9,2.1,12.1,4.3,21.5,6.5c5,1.1,10,2.6,15.1,4.4c5.1,1.8,9.7,4.3,13.9,7.3
		c4.2,3.1,7.5,6.8,10.1,11.4c2.6,4.5,3.9,10,3.9,16.5c0,8.1-1.5,15-4.6,20.6c-3,5.6-7.1,10.2-12.2,13.7c-5.1,3.5-11,6.1-17.7,7.6
		c-6.7,1.6-13.7,2.4-20.9,2.4c-10.3,0-20.4-1.9-30.2-5.7c-9.8-3.8-17.9-9.2-24.4-16.2l21.9-20.5c3.7,4.8,8.5,8.8,14.4,11.9
		c5.9,3.1,12.5,4.7,19.7,4.7c2.4,0,4.9-0.3,7.3-0.8c2.5-0.6,4.8-1.4,6.9-2.6c2.1-1.2,3.8-2.8,5.1-4.9c1.3-2,1.9-4.5,1.9-7.5
		c0-5.5-2.5-9.5-7.6-11.9c-5.1-2.4-12.7-4.8-22.9-7.2c-5-1.1-9.8-2.5-14.5-4.3c-4.7-1.8-8.9-4.1-12.6-6.9c-3.7-2.9-6.6-6.4-8.9-10.7
		c-2.2-4.2-3.3-9.5-3.3-15.8c0-7.4,1.5-13.8,4.6-19.1c3-5.4,7.1-9.7,12.1-13.2c5-3.4,10.6-6,16.9-7.6c6.3-1.7,12.7-2.5,19.4-2.5
		c9.6,0,19,1.7,28.1,5c9.1,3.3,16.4,8.4,21.8,15.2L102,44.9z"/>
	<path class="st0" d="M133.6,75.4c0-10.5,1.9-20.1,5.7-28.7c3.8-8.6,8.9-15.9,15.4-22c6.5-6.1,14.1-10.8,23-14.1
		c8.9-3.3,18.3-5,28.3-5c10,0,19.4,1.7,28.3,5c8.9,3.3,16.5,8,23,14.1c6.5,6.1,11.6,13.4,15.4,22c3.8,8.6,5.7,18.1,5.7,28.7
		s-1.9,20.1-5.7,28.8c-3.8,8.7-8.9,16.1-15.4,22.3c-6.5,6.2-14.1,11-23,14.5c-8.9,3.5-18.3,5.3-28.3,5.3c-10,0-19.4-1.8-28.3-5.3
		c-8.9-3.5-16.5-8.4-23-14.5c-6.5-6.2-11.6-13.6-15.4-22.3C135.5,95.5,133.6,85.9,133.6,75.4 M167.4,75.4c0,5.2,0.8,10.3,2.4,15.5
		c1.6,5.2,3.9,9.8,7.1,13.9c3.1,4.1,7.1,7.4,11.9,10c4.8,2.6,10.5,3.9,17.2,3.9c6.6,0,12.4-1.3,17.2-3.9c4.8-2.6,8.8-5.9,11.9-10
		c3.1-4.1,5.5-8.7,7.1-13.9c1.6-5.2,2.4-10.3,2.4-15.5c0-5.2-0.8-10.3-2.4-15.4c-1.6-5.1-3.9-9.6-7.1-13.7
		c-3.1-4.1-7.1-7.3-11.9-9.8c-4.8-2.5-10.5-3.7-17.2-3.7c-6.6,0-12.4,1.2-17.2,3.7c-4.8,2.5-8.8,5.8-11.9,9.8
		c-3.1,4.1-5.5,8.6-7.1,13.7C168.2,65.1,167.4,70.2,167.4,75.4"/>
	<path class="st0" d="M420.5,75.4c0-10.5,1.9-20.1,5.7-28.7c3.8-8.6,8.9-15.9,15.4-22c6.5-6.1,14.1-10.8,23-14.1
		c8.9-3.3,18.3-5,28.3-5c10,0,19.4,1.7,28.3,5c8.9,3.3,16.5,8,23,14.1c6.5,6.1,11.6,13.4,15.4,22c3.8,8.6,5.7,18.1,5.7,28.7
		s-1.9,20.1-5.7,28.8c-3.8,8.7-8.9,16.1-15.4,22.3c-6.5,6.2-14.1,11-23,14.5c-8.9,3.5-18.3,5.3-28.3,5.3c-10,0-19.4-1.8-28.3-5.3
		c-8.9-3.5-16.5-8.4-23-14.5c-6.5-6.2-11.6-13.6-15.4-22.3C422.4,95.5,420.5,85.9,420.5,75.4 M454.3,75.4c0,5.2,0.8,10.3,2.4,15.5
		c1.6,5.2,3.9,9.8,7.1,13.9c3.1,4.1,7.1,7.4,11.9,10c4.8,2.6,10.5,3.9,17.2,3.9c6.6,0,12.4-1.3,17.2-3.9c4.8-2.6,8.8-5.9,11.9-10
		c3.1-4.1,5.5-8.7,7.1-13.9c1.6-5.2,2.4-10.3,2.4-15.5c0-5.2-0.8-10.3-2.4-15.4c-1.6-5.1-3.9-9.6-7.1-13.7
		c-3.1-4.1-7.1-7.3-11.9-9.8c-4.8-2.5-10.5-3.7-17.2-3.7c-6.6,0-12.4,1.2-17.2,3.7c-4.8,2.5-8.8,5.8-11.9,9.8
		c-3.1,4.1-5.5,8.6-7.1,13.7C455.1,65.1,454.3,70.2,454.3,75.4"/>
	<path class="st0" d="M657.5,44.9c-3-3.9-7-7.2-12.2-10.1c-5.2-2.9-10.8-4.3-16.9-4.3c-5.4,0-10.3,1.1-14.7,3.3
		c-4.4,2.2-6.7,5.9-6.7,11.1c0,5.2,2.4,8.8,7.3,10.9c4.9,2.1,12.1,4.3,21.5,6.5c5,1.1,10,2.6,15.1,4.4c5.1,1.8,9.7,4.3,13.9,7.3
		c4.2,3.1,7.5,6.8,10.1,11.4c2.6,4.5,3.9,10,3.9,16.5c0,8.1-1.5,15-4.6,20.6c-3,5.6-7.1,10.2-12.2,13.7c-5.1,3.5-11,6.1-17.7,7.6
		c-6.7,1.6-13.7,2.4-20.9,2.4c-10.3,0-20.4-1.9-30.2-5.7c-9.8-3.8-17.9-9.2-24.4-16.2l21.9-20.5c3.7,4.8,8.5,8.8,14.4,11.9
		c5.9,3.1,12.5,4.7,19.7,4.7c2.4,0,4.8-0.3,7.3-0.8c2.5-0.6,4.8-1.4,6.9-2.6c2.1-1.2,3.8-2.8,5.1-4.9c1.3-2,1.9-4.5,1.9-7.5
		c0-5.5-2.5-9.5-7.6-11.9c-5.1-2.4-12.7-4.8-22.9-7.2c-5-1.1-9.8-2.5-14.5-4.3c-4.7-1.8-8.9-4.1-12.6-6.9c-3.7-2.9-6.7-6.4-8.9-10.7
		c-2.2-4.2-3.3-9.5-3.3-15.8c0-7.4,1.5-13.8,4.6-19.1c3-5.4,7.1-9.7,12.1-13.2c5-3.4,10.6-6,16.9-7.6c6.3-1.7,12.7-2.5,19.4-2.5
		c9.6,0,19,1.7,28.1,5c9.1,3.3,16.4,8.4,21.8,15.2L657.5,44.9z"/>
	<polygon class="st1" points="365.4,120.7 365.3,120.8 365.4,120.7 	"/>
	<polygon class="st1" points="327.8,110 327.9,110.1 327.8,110 	"/>
	<polygon class="st2" points="333,132.7 349.2,164.5 429.1,5.6 392.2,5.6 332.9,132.7 	"/>
	<polygon class="st0" points="344.9,88.3 307,5.6 270.1,5.6 328.4,123.5 	"/>
</g>
</svg>
